/* XPM */
static char *fe6147b13af44d62b5cf17c188a6a479GatULOG6t5JKJn75[] = {
/* columns rows colors chars-per-pixel */
"64 64 256 2 ",
"   c #056782",
".  c #00909E",
"X  c #00709B",
"o  c #008796",
"O  c #007184",
"+  c #0096A3",
"@  c #23D8DD",
"#  c #1ED2D7",
"$  c #02617F",
"%  c #036482",
"&  c #2DC2CA",
"*  c #0075A2",
"=  c #01668B",
"-  c #0099A6",
";  c #026182",
":  c #07A7B2",
">  c #006B93",
",  c #01688E",
"<  c #1CC8CF",
"1  c #006D96",
"2  c #18BEC6",
"3  c #17C2C9",
"4  c #15748D",
"5  c #1CCDD3",
"6  c #1B8294",
"7  c #02678B",
"8  c #18C4CC",
"9  c #07688B",
"0  c #0E8F9E",
"q  c #118394",
"w  c #15A1AE",
"e  c #07637D",
"r  c #008D9B",
"t  c #217D90",
"y  c #319BA9",
"u  c #005F7D",
"i  c #1F8B9C",
"p  c #0C7C8F",
"a  c #33BAC4",
"s  c #01617B",
"d  c #00739F",
"f  c #1CC6CD",
"g  c #006E98",
"h  c #258A9C",
"j  c #19B9C2",
"k  c #007B8B",
"l  c #0BAFB9",
"z  c #077C8E",
"x  c #0CB1BA",
"c  c #1A7A8F",
"v  c #2ABCC4",
"b  c #047085",
"n  c #036886",
"m  c #22D6DB",
"M  c #1198A5",
"N  c #04657F",
"B  c #0B798D",
"V  c #046888",
"C  c #046C93",
"Z  c #37ABB7",
"A  c #036D83",
"S  c #008796",
"D  c #0E7E91",
"F  c #126F8D",
"G  c #22909F",
"H  c #14BDC6",
"J  c #11B6BF",
"K  c #09758B",
"L  c #0A95A3",
"P  c #227F95",
"I  c #0AACB6",
"U  c #176B76",
"Y  c #0C95A3",
"T  c #10B4BE",
"R  c #21A6B2",
"E  c #0B6D8A",
"W  c #00749F",
"Q  c #1FC2CA",
"!  c #21D4DA",
"~  c #1BCAD1",
"^  c #006B7F",
"/  c #066983",
"(  c #03A1AD",
")  c #159DAA",
"_  c #0A8A99",
"`  c #1396A4",
"'  c #006F81",
"]  c #2CA5B2",
"[  c #108999",
"{  c #13BCC4",
"}  c #0C6C8F",
"|  c #1D738C",
" . c #2596A5",
".. c #0C728A",
"X. c #0999A6",
"o. c #04698D",
"O. c #13BAC3",
"+. c #008A98",
"@. c #08798C",
"#. c #20CCD3",
"$. c #33A6B3",
"%. c #009EAA",
"&. c #026684",
"*. c #1CAAB6",
"=. c #37D7DC",
"-. c #036587",
";. c #019DAA",
":. c #12B8C1",
">. c #0CADB7",
",. c #018D9B",
"<. c #06A9B3",
"1. c #1A91A1",
"2. c #08AAB5",
"3. c #1FB4BE",
"4. c #17ADB8",
"5. c #17A6B1",
"6. c #046A87",
"7. c #008696",
"8. c #02647C",
"9. c #008B9A",
"0. c #008998",
"q. c #0D8C9A",
"w. c #19C6CD",
"e. c #04A4AF",
"r. c #19B1BB",
"t. c #088092",
"y. c #0AA0AC",
"u. c #016385",
"i. c #106C85",
"p. c #056B87",
"a. c #088998",
"s. c #11909F",
"d. c #02A0AB",
"f. c #077088",
"g. c #066B8F",
"h. c #22A0AE",
"j. c #018594",
"k. c #1192A0",
"l. c #00719B",
"z. c #1299A7",
"x. c #056884",
"c. c #097186",
"v. c #12ABB7",
"b. c #11A9B3",
"n. c #096E85",
"m. c #00607F",
"M. c #16B2BB",
"N. c #099EAB",
"B. c #1ABCC4",
"V. c #047590",
"C. c #037487",
"Z. c #0793A1",
"A. c #1F8698",
"S. c #016186",
"D. c #22D8DD",
"F. c #038F9D",
"G. c #00729E",
"H. c #2CADB8",
"J. c #007E8E",
"K. c #15C0C8",
"L. c #046B82",
"P. c #049EAB",
"I. c #067689",
"U. c #1AADB8",
"Y. c #098E9D",
"T. c #056A86",
"R. c #1AB6C1",
"E. c #059EAA",
"W. c #016488",
"Q. c #008292",
"!. c #1F9EAB",
"~. c #2099A8",
"^. c #0078A6",
"/. c #056485",
"(. c #238898",
"). c #0F6A88",
"_. c #268799",
"`. c #008F9D",
"'. c #06A5B0",
"]. c #07A2AE",
"[. c #076B88",
"{. c #076B85",
"}. c #059CA9",
"|. c #009CA9",
" X c #0397A3",
".X c #20D2D8",
"XX c #128D9C",
"oX c #01637A",
"OX c #19B3BD",
"+X c #16B3BD",
"@X c #0EB2BC",
"#X c #1D97A5",
"$X c #03798A",
"%X c #0C6983",
"&X c #016081",
"*X c #0078A5",
"=X c #0077A4",
"-X c #0077A5",
";X c #0075A1",
":X c #23D9DE",
">X c #087F90",
",X c #0A778D",
"<X c #1DCFD5",
"1X c #028796",
"2X c #13BBC4",
"3X c #016991",
"4X c #1FD0D6",
"5X c #21D5DA",
"6X c #21D6DA",
"7X c #049FAB",
"8X c #11BAC3",
"9X c #068594",
"0X c #0090A6",
"qX c #22B8C1",
"wX c #07859E",
"eX c #007DA6",
"rX c #20B7C0",
"tX c #086A8D",
"yX c #02709A",
"uX c #27A2AF",
"iX c #2E8B9B",
"pX c #01739D",
"aX c #007788",
"sX c #36838A",
"dX c #057AA1",
"fX c #22D7DC",
"gX c #28D7DB",
"hX c #00677C",
"jX c #137088",
"kX c #17A9B4",
"lX c #16AAB5",
"zX c #3CB9C3",
"xX c #066886",
"cX c #0E96A7",
"vX c #02668A",
"bX c #036388",
"nX c #1FD4DA",
"mX c #008291",
"MX c #068091",
"NX c #0092A0",
"BX c #198999",
"VX c #0094A1",
"CX c #0C9CA9",
"ZX c #009BA8",
"AX c #0B98A5",
"SX c #0D8699",
"DX c #085B75",
"FX c #3EC8CF",
"GX c #3CCCD3",
"HX c #025777",
"JX c #0076A3",
"KX c #20BCC4",
"LX c #2CD0D6",
"PX c #1493A2",
"IX c #1A94A2",
"UX c #13BAC2",
/* pixels */
":X:X:X:X:X:X:X:X:X:X:X@ :X:X:X:X:X:X:X:XgX:X:X:X:X:X:X:X:X:X:X:XfX:X:X:X:X:X:X:X:X:X5X:X:X:X:X:X:X:X:X:X:X:X.X:X:X:X:X:X:X:X:X:X",
"D.K 7 V V V V V V V 6.:X) 6.6.E p.6.6.=.=., V V V V V n V 9 9 , p @ h T.p.p.p.T.f.D.D o.o.V n V 9 V n V V , 5.fX[.E [.p.p.p.BXD.",
"D.7 ^.^.^.^.^.^.^.^.,XD.X ^.^.^.^.^.^.F D., ^.^.^.^.^.^.^.^.^.^.GXFX^.^.^.^.^.^.^.s.j ^.^.^.^.^.^.^.^.^.^.X fXp.^.^.^.^.^.^.7 @ ",
"fXn ^.^.^.^.^.^.^.3XfX,X^.^.^.^.^.^.^.^.) <X*X^.^.^.^.^.^.^.^._.fX> ^.^.^.^.^.^.^.X fXD ^.^.^.^.^.^.^.^.^.R.B.^.^.*X^.^.^.^.n fX",
"m V ^.^.^.^.^.^.^.4.#.^.^.^.^.^.^.^.^.^.1 6X,X^.^.^.^.^.^.^.d m y ^.^.^.^.^.^.^.^.^.,Xm yX^.^.^.^.^.^.^.6.6X, ^.^.^.^.^.^.^.n 6X",
"6XF ^.^.^.^.^.^.6.6Xn ^.^.^.^.^.^.^.^.^.^.D 5Xg ^.^.^.^.^.^.Z ! ;X^.^.^.^.^.^.^.^.^.^.LXzX^.^.^.^.^.^.W 5Xs.^.^.^.^.^.^.^.^.6.5X",
"! ! lX4.4.U.a v 5X[ ^.^.^.^.^.^.^.^.^.^.^.^.r.< ) 5.5.*.a a nX[.^.^.^.^.^.^.^.^.^.^.^.| ! j r.3.& & 3.f Q ^.^.^.^.^.^.^.^.^.[.! ",
"! R [ k.k.PX] $.# [ ^.^.^.^.^.^.^.^.^.^.^.^.Q R.XX` ` ~.$.] .Xp.^.^.^.^.^.^.^.^.^.^.^.V nX) k.z.] Z #XkX< d ^.^.^.^.^.^.^.^.6.! ",
".XvX^.^.^.^.^.^.P .Xn ^.^.^.^.^.^.^.^.^.^.1.# d ^.^.^.^.^.^.q .Xl.^.^.^.^.^.^.^.^.^.JX.Xk.^.^.^.^.^.^.^.< ) ^.^.^.^.^.^.^.^.n .X",
"# n ^.^.^.^.^.^.^.& Q ^.^.^.^.^.^.^.^.^., # f.^.^.^.^.^.^.^.;X# q.^.^.^.^.^.^.^.^.^.D # X ^.^.^.^.^.^.^.V .Xg.^.^.^.^.^.^.^.n # ",
"4Xn ^.^.^.^.^.^.^.g.4X4 ^.^.^.^.^.^.^.^.r.B.^.^.^.^.^.^.^.^.^.p.4X, ^.^.^.^.^.^.^.1 4XK ^.^.^.^.^.^.^.^.^.H.& ^.^.^.^.^.^.^.n 4X",
"<Xn ^.^.^.^.^.^.^.^.h.<X;X^.^.^.^.^.^.x.<XvX^.^.^.^.^.^.^.^.^.^.j r.^.^.^.^.^.^.^.w f ^.^.^.^.^.^.^.^.^.^.yX<X4 ^.^.^.^.^.^.7 <X",
"5 n ^.^.^.^.^.^.^.^.1 f H.A.D p p p B 5 D ^.^.^.^.^.^.^.^.^.^.^.3X5 [ B h A.p ,Xi 5 V ^.^.^.^.^.^.^.^.^.^.^.P 5 B K ,X,X,XK s.<X",
"5 n ^.^.^.^.^.^.^.^.^.OX5 v B.2 B.B.2 5 {.^.^.^.^.^.^.^.^.^.^.^.=Xf 5 OXv KX2 j f < pX^.^.^.^.^.^.^.^.^.^.^.9 #.R.j j j j OX< 5 ",
"~ n ^.^.^.^.^.^.^.^.,Xw.7 g = HXu g ;XdX~ d ^.^.^.^.^.^.^.^.^.^.[ ~ X ^.^.^.^.^.* Q uX^.^.^.^.^.^.^.^.^.^.;X~ [ ^.^.^.^.^.^.T.5 ",
"~ V ^.^.^.^.^.^.^.1 ~ SXd ^.-X> ;X;X=XS.~ 1.-X^.^.^.^.^.^.^.^.7 ~ {.^.^.^.^.^.^.^.-.~ } ^.^.^.^.^.^.^.^.^.p ~ l.^.^.^.^.^.^.9 ~ ",
"< 6.^.^.^.^.^.^.^.s.< X *Xg d 1 ;X;X= JX  < 7 ^.^.^.^.^.^.^.^.qXv ^.^.^.^.^.^.^.^.^.) B.^.^.^.^.^.^.^.^.1 < ..^.^.^.^.^.^.^.n < ",
"w.7 ^.^.^.^.^.^.vX< f.;X-XG.=X*X-XJXg ;X=Xv.M.^.^.^.^.^.^.^.E f } ^.^.^.^.^.^.^.^.^.> < f.^.^.^.^.^.^.^.z.2 ^.^.^.^.^.^.^.^.n < ",
"f B tX9 } } -.-.M.z.* ^.* -X=X^.^.^.*X^.;XW.3 K n n n n n / 8 A.^.^.^.^.^.^.^.^.^.^.^...w.E } 4 T.n &.n.w.-.^.^.^.^.^.^.^.^.n w.",
"8 w.3 8 w.Q 8 8 8 c.*X1 -X^.=X*X^.^.;Xd -XX cX8 8 8 8 8 8 w.8 g.^.^.^.^.^.^.^.^.^.^.^.l.8 8 8 Q w.8 8 8 b.^.^.^.^.^.^.^.^.^.V 8 ",
"8 A.C , , > C > B H ;X^.JX^.^.^.^.^.*X^.^.e 8 &.X > > > 1 g U.w ^.^.^.^.^.^.^.^.^.^.^. .j 3X1 1 g > g -.8 / ^.^.^.^.^.^.^.^.[.8 ",
"3 -.^.^.^.^.^.^.*X3 wX^.^.d ^.*Xd *X^.^.JXR.IX^.^.^.^.^.^.^.7 3 x.^.^.^.^.^.^.^.^.^.g.3 -.^.^.^.^.^.^.^.>X3 ;X^.^.^.^.^.^.^.n 3 ",
"K.&.^.^.^.^.^.^.^.&.H W JX*X*X*XJXd g =XV.K.pX^.^.^.^.^.^.^.*XSXK.JX^.^.^.^.^.^.^.^.4.z.^.^.^.^.^.^.^.^.d K.D ^.^.^.^.^.^.^.&.K.",
"K.&.^.^.^.^.^.^.^.^.5.U.-X=X-X^.JX^.-XHXK.C.^.^.^.^.^.^.^.^.^.X K.K ^.^.^.^.^.^.^.{.K.> ^.^.^.^.^.^.^.^.^...2 1 ^.^.^.^.^.^.-.2 ",
"H &.^.^.^.^.^.^.^.^.C K.E X ^.-XW JX= _ v.-X^.^.^.^.^.^.^.^.^.^.A H vX1 3X3X> g 7 H C.^.^.^.^.^.^.^.^.^.^.^.*.M g g 1 1 1 l.  H ",
"2X&.^.^.^.^.^.^.^.^.^.h 2X{ { { { { { 2X  ^.^.^.^.^.^.^.^.^.^.^.^.v.{ { 2X2Xj rX2X{ ^.^.^.^.^.^.^.^.^.^.^.^.7 { { 2X{ { 2X2X{ { ",
"O.&.^.^.^.^.^.^.^.^.d w IX            b.q.^.^.^.^.^.^.^.^.^.^.^.% UXL.&.  } F F F 8XT.^.^.^.^.^.^.^.^.^.^.-Xy 3.x.          I.8X",
":.&.^.^.^.^.^.^.^.^.@.UXW ^.^.^.^.^.^.-.:.xX^.^.^.^.^.^.^.^.^.*X:._ ^.^.^.^.^.^.^.A.:.G.^.^.^.^.^.^.^.^.^.V :.o.^.^.^.^.^.^.= :.",
"J % ^.^.^.^.^.^.^.3XJ A ^.^.^.^.^.^.^.*X1.+X=X^.^.^.^.^.^.^.^.b J g ^.^.^.^.^.^.^.JXJ 6 ^.^.^.^.^.^.^.^.^.b.Y ^.^.^.^.^.^.^.x.J ",
"J V ^.^.^.^.^.^.^.Z.>.^.^.^.^.^.^.^.^.^.yXJ b ^.^.^.^.^.^.^.g T b ^.^.^.^.^.^.^.^.^.E T > ^.^.^.^.^.^.^.x.T 3X^.^.^.^.^.^.^.xXJ ",
"T x.^.^.^.^.^.^.% @X% ^.^.^.^.^.^.^.^.^.^.b T > ^.^.^.^.^.^.G 4.=X^.^.^.^.^.^.^.^.^.^.5.#X^.^.^.^.^.^.X T I.^.^.^.^.^.^.^.^.n T ",
"@Xx IX$.] 0 Y._ @X@.^.^.^.^.^.^.^.^.^.^.^.^.Y @XL AXAXX.Y CX@X} ^.^.^.^.^.^.^.^.^.^.^., @XR uXM X.AXL l y.^.^.^.^.^.^.^.^.^.% @X",
"x : BXy  .t.t.z l >X^.^.^.^.^.^.^.^.^.^.^.^.AXX.@.>X>X>Xz t.l 4 ^.^.^.^.^.^.^.^.^.^.^.xXx G h q >X>X@.Y.: X ^.^.^.^.^.^.^.^.% x ",
"l   ^.^.^.^.^.^.&.l % ^.^.^.^.^.^.^.^.^.^.I.l G.^.^.^.^.^.^.c l G.^.^.^.^.^.^.^.^.^.JXl i ^.^.^.^.^.^.^.I a.^.^.^.^.^.^.^.^.&.l ",
">.-.^.^.^.^.^.^.^.9XI -X^.^.^.^.^.^.^.^.1 >.  ^.^.^.^.^.^.^.JX>.@.^.^.^.^.^.^.^.^.^.4 >.d ^.^.^.^.^.^.^.% l u.^.^.^.^.^.^.^.xX>.",
"I % ^.^.^.^.^.^.^.1 I A ^.^.^.^.^.^.^.^.~.5.^.^.^.^.^.^.^.^.^.% I , ^.^.^.^.^.*X^.X I jX^.^.^.^.^.^.^.^.^.Y.y.^.^.^.^.^.^.^./.I ",
"2.% ^.^.^.^.^.^.^.^.A 2.l.^.^.^.^.^.^.; 2.tX^.^.^.^.^.^.^.^.^.^.X.Z.^.^.^.^.^.^.^.BX: ^.^.^.^.^.^.^.^.^.^., 2.4 ^.^.^.^.^.^.= 2.",
"<.% ^.^.^.^.^.^.^.^.JXIXIXN       N   y.C.^.^.^.^.^.^.^.^.^.^.^.3X<.I.L.f.c c c _.<.u.^.^.^.^.^.^.^.^.^.^.^.P : A L.A A A L.z <.",
": ; ^.^.^.^.^.^.^.^.^.6 : }.E.P.E.}.7X: N ^.^.^.^.^.^.^.^.^.^.^.*Xy.: Z.L ` !.!.'.: X ^.^.^.^.^.^.^.^.^.*X^.W.: '.].e.].].7X: : ",
"'.; ^.^.^.^.^.^.^.^.tX'.  ^.*X*X*X*X*Xb '.G.^.^.^.^.^.^.^.^.^.^.I.'.g ^.^.^.^.^.d N.MX^.^.^.^.^.^.^.^.^.^.^.N.z JXl.l.= d X s '.",
"e.; ^.^.^.^.^.^.^.^.L 0 ^.^.^.^.^.^.^.d e.C.^.^.^.^.^.^.^.^.^.7 e.N ^.^.^.^.^.^.^.% e.u.^.^.^.^.^.^.^.^.^.sXe.> d g > W.-X=Xl.e.",
"( ; ^.^.^.^.^.^.^.N ].= ^.^.^.^.^.^.^.^.N e.C ^.^.^.^.^.^.^.^.,. X^.^.^.^.^.^.^.^.^.q. X^.^.^.^.^.^.^.^.X ( U JX;X;XG.=X;X=XW ( ",
"( u.^.^.^.^.^.^.;X( C.^.^.^.^.^.^.^.^.^.^.` XX^.^.^.^.^.^.^.$ ( u.^.^.^.^.^.^.^.^.^.C ( / ^.^.^.^.^.^.^.$X;.;X^.^.;XX =X^.=XW ( ",
"d.6 9 /.-.).} bXC. Xl.^.^.^.^.^.^.^.^.^.^.-.7X8.= W.W.W.7 o.}.z ^.^.^.^.^.^.^.^.^.^.^.t d.u.vX9 g.vX= $ d.vX^.*X=X^.W -X*XJXpX7X",
";.%.%.%.%.%.;.%.%.L.^.^.^.^.^.^.^.^.^.^.^.^.z ;.%.%.;.;.%.%.;.C ^.^.^.^.^.^.^.^.^.^.^.X ;.%.;.CX}.;.%.%.1Xg *X=X;X*Xd =X*XJXl.;.",
"|.n.C g.g.vXW.= b - X ^.^.^.^.^.^.^.^.^.^.u.|.$ 7 W.W.W.= W.k.6 ^.^.^.^.^.^.^.^.^.^.^.b  X, , o.W.W.= $ ;.l.^.^.*X^.;X*X;XJXX |.",
"ZXu.^.^.^.^.^.^.;XZXC.^.^.^.^.^.^.^.^.^.^.. j.^.^.^.^.^.^.^.V ZXtX^.^.^.^.^.^.^.^.^.= ZX$ ^.^.^.^.^.^.^.V.eXl.*X*X^.=X*XJXJXl.ZX",
"- % ^.^.^.^.^.^.^.$ - = ^.^.^.^.^.^.^.^.s - , ^.^.^.^.^.^.^.^.D L ^.^.^.^.^.^.^.^.^.0.1X^.^.^.^.^.^.^.^.X 0X1 ;Xg =XJX=X=X=X=X- ",
"- % ^.^.^.^.^.^.^.^.r 1X^.^.^.^.^.^.^.;X- c.^.^.^.^.^.^.^.^.^.1 - N ^.^.^.^.^.^.^.%X- 3X^.^.^.^.^.^.^.^.*X8.- , ^.;X^.;XJXW DX- ",
"+ &X^.^.^.^.^.^.^.^.u.+ $ =X;Xd d ;X;XA + ;X^.^.^.^.^.^.^.^.^.^.8.+ 3X;Xl.X X d > + iX^.^.^.^.^.^.^.^.^.^.^.F.D g 1 = , S.W.% + ",
"+ &X^.^.^.^.^.^.^.^.*XA + s.. + + VX+ + $ ^.^.^.^.^.^.^.^.^.^.^.^.,.+ F.L + + + VXZ.^.^.*X^.^.^.^.^.^.^.*X^.9 + Y.r ,.,.,.+.+ + ",
"VX&X^.^.^.^.^.^.^.^.;Xq.q i.s s s s s r ^ ^.^.^.^.^.^.^.^.^.^.^.u.VX8.N jX).s s %XVX  ^.^.^.^.^.^.^.^.^.^.^.| NX  s s s s s ^ VX",
"NX&X^.^.^.^.^.^.^.^.jXNXl.^.^.^.^.^.^.; NX; ^.^.^.^.^.^.^.^.^.^.+.J.^.^.^.^.^.^.^.O NX=X^.^.^.^.^.^.^.^.^.C NXN ^.^.^.^.^.^.W.NX",
"NX&X^.^.^.^.^.^.^.1 . i.^.^.^.^.^.^.^.^.aX+.^.^.^.^.^.^.^.^.^.s NX, ^.^.^.^.^.^.^.X NX8.^.^.^.^.^.^.^.^.^.BXa.^.^.*X^.^.^.^.&X. ",
". ; ^.^.^.^.^.^.^.6 . =X^.^.^.^.^.^.^.^.3X`.$ ^.^.^.^.^.^.^.d . hX^.^.^.^.^.^.^.^.^.oX. 1 ^.^.^.^.^.^.^.).. , ^.^.^.^.^.^.^.&X. ",
"`.u ^.^.^.^.^.^.9 `.$ ^.^.^.^.^.^.^.^.^.^.n.`.G.^.^.^.^.^.^.hX`.d ^.^.^.^.^.^.^.^.^.^.+.O ^.^.^.^.^.^.^.r O ^.^.^.^.^.^.^.^.&X`.",
"r 0.' ' ' O h t 7.' ^.^.^.^.^.^.^.^.^.^.^.^.XXj.^ O ' K _.B r u ^.^.^.^.^.^.^.^.^.^.^.S.r O ' ' B _...k 7.d ^.^.^.^.^.^.^.^.&Xr ",
"r MXC.aXaX$XG q r oX^.^.^.^.^.^.^.^.^.^.^.^.k 7.' O O C.(.D r u ^.^.^.^.^.^.^.^.^.^.^.| r aXO O p (.C.J.mX^.^.^.^.^.^.^.^.^.; r ",
"9.u.^.^.^.^.^.^.oX9.= ^.^.^.^.^.^.^.^.^.^.8.9.g ^.^.^.^.^.*Xc 9.;X^.^.^.^.^.^.^.^.^.^.q.(.^.^.^.^.^.^.;X9.hX^.^.^.^.^.^.^.^.; 9.",
"+.&X^.^.^.^.^.^.JX+.aX^.^.^.^.^.^.^.^.^.> 9.s *X^.^.^.^.^.^.W 9.t -X^.^.^.^.^.^.^.^.u 9.1 ^.^.^.^.^.^.^.u +., ^.^.^.^.^.^.^.m.9.",
"+.m.^.^.^.^.^.^.^.u +.u ^.^.^.^.^.^.^.^.' S ^.^.^.^.^.^.^.^.*X| +.> ^.^.^.^.^.^.^.d +.oX^.*X^.^.^.^.^.^.^.J.aX^.^.^.^.^.^.^.m.+.",
"+.S.^.^.^.^.^.^.^.^.^ Q.^.^.^.^.^.^.^.).+.= ^.^.^.^.^.^.^.^.^.^.q A.*X^.^.^.^.^.^.hXk ^.^.^.^.^.^.^.^.^.^.1 S &X^.^.^.^.^.^.u.S ",
"S s u u u $ $ u u u s S oXm.; ; &Xm.m.q._ &Xu u u u u u $ % $ m.oXS %X&Xm.m.m.m.u S hX/.$ u u $ % $ u u u &Xk Q.&X&X; &X&XS.oXS ",
"S S S S S S S S S S S S S S S S S S S S 7.S S S S S S S S S S S S S S S S S S S S S S S S S S S S S S S S S S S S S S S S S S S "
};
